<svg width="434" height="433" viewBox="0 0 434 433" fill="none" xmlns="http://www.w3.org/2000/svg">
<path d="M16.9048 70.5813C16.9048 64.0307 15.3552 60.9667 10.3542 60.9667H1.5496C0.387402 60.9667 0 60.5793 0 59.241V54.8035C0 53.6413 0.387398 53.2539 1.937 53.2539C3.874 53.2539 13.1012 53.8174 31.5203 53.8174C47.6503 53.8174 56.8775 53.2539 59.2019 53.2539C60.3641 53.2539 60.7515 53.6413 60.7515 54.5922V59.4171C60.7515 60.5793 60.3641 60.9667 59.2019 60.9667H51.1369C45.3611 60.9667 41.9097 64.4181 41.7336 68.4682C41.5575 70.7926 41.1701 82.309 41.1701 93.4731V117.351C41.1701 126.966 41.3462 140.63 41.7336 146.794C42.2971 155.633 43.8467 164.508 48.4603 170.636C55.0109 179.476 65.3651 182.575 74.5922 182.575C83.432 182.575 94.2088 179.124 100.337 173.348C107.627 166.023 111.501 154.894 111.501 140.842V106.222C111.501 90.8318 109.951 73.8918 109.388 69.4543C108.824 64.4533 105.725 61.0019 101.499 61.0019H94.5962C93.434 61.0019 93.0466 60.4384 93.0466 59.6636V54.8387C93.0466 53.6765 93.434 53.2891 94.5962 53.2891C96.498 53.2891 105.373 53.8526 118.052 53.8526C129.955 53.8526 136.118 53.2891 137.668 53.2891C139.394 53.2891 139.605 53.8526 139.605 54.8387V59.2762C139.605 60.4384 139.394 61.0019 138.443 61.0019H131.54C124.637 61.0019 123.863 66.3903 123.475 68.5034C123.088 70.8278 123.088 97.7346 123.088 100.235C123.088 102.912 122.7 136.404 121.926 144.117C120.763 159.895 116.15 171.834 105.796 181.061C97.7306 188.386 85.4395 193 70.8239 193C61.5967 193 50.4677 191.45 43.1423 188.386C31.9782 183.773 24.3006 174.933 20.4618 162.607C17.7852 154.154 17.0104 141.44 17.0104 116.224V70.5813H16.9048Z" fill="#990000"/>
<path d="M144.923 147.181C145.698 147.181 146.085 147.568 146.085 148.731C146.472 154.894 148.022 162.184 153.375 170.672C159.151 179.899 169.153 184.512 178.732 184.512C189.122 184.512 203.702 177.962 203.702 162.008C203.702 144.293 195.637 138.517 175.246 130.84C169.083 128.515 156.404 123.127 147.177 114.675C140.626 108.511 137.562 98.8968 137.562 87.1691C137.562 76.3924 141.788 67.5526 151.016 60.2272C158.693 53.6766 167.146 51 178.31 51C190.988 51 198.666 54.064 202.54 55.6136C204.477 56.3884 205.604 56.001 206.59 55.0501L209.09 52.5496C209.865 51.7748 210.64 51.3874 211.767 51.3874C212.929 51.3874 213.317 52.5496 213.317 54.4514C213.317 57.5154 216.381 84.4573 216.381 86.3943C216.381 87.1691 215.993 87.5565 215.218 87.7326L212.154 88.6835C211.38 88.8596 210.605 88.6835 210.217 87.5213C208.28 82.1329 205.216 74.4553 198.314 67.13C193.313 61.7416 187.15 59.065 178.31 59.065C162.919 59.065 156.791 71.3914 156.791 78.5054C156.791 85.056 157.566 90.8318 162.18 95.8328C167.181 100.834 177.922 105.447 185.635 107.772C196.799 111.223 205.991 115.097 213.317 122.775C219.48 129.325 222.931 137.39 222.931 150.28C222.931 173.736 207.541 193 182.184 193C166.406 193 157.214 189.549 149.501 183.773C147.177 182.223 146.05 181.448 144.888 181.448C143.725 181.448 142.951 182.998 141.824 184.9C140.661 186.837 139.922 187.224 138.372 187.224C136.823 187.224 136.048 186.062 136.048 184.16C136.435 181.836 139.112 150.668 139.499 148.378C139.675 147.216 139.887 146.829 140.661 146.829L144.923 147.181Z" fill="#990000"/>
<path d="M354.401 158.733C354.965 159.296 355.176 159.895 354.788 160.67C343.272 177.222 324.818 193 297.524 193C272.906 193 259.1 185.675 247.162 174.898C232.933 162.184 226.418 139.891 226.418 122.951C226.418 104.109 232.581 86.0069 246.035 71.3914C256.424 60.2272 272.941 51 296.009 51C313.689 51 327.917 56.3884 334.82 60.2272C337.496 61.7768 338.271 61.7768 338.659 60.2272L340.208 55.2262C340.596 54.064 340.983 54.064 343.272 54.064C345.561 54.064 345.949 54.4514 345.949 57.128C345.949 60.5794 349.787 91.3953 350.562 97.1359C350.774 98.2981 350.562 98.8616 349.787 99.0729L346.125 100.235C345.174 100.623 344.575 99.8477 344.012 98.2981C341.687 91.3601 337.109 81.7455 329.009 73.2931C320.556 65.2282 310.554 59.065 295.551 59.065C264.806 59.065 252.127 86.7817 252.127 114.463C252.127 126.402 255.579 149.083 269.807 164.508C282.485 177.962 293.65 179.511 302.877 179.511C324.008 179.511 340.736 168.911 348.801 157.183C349.752 155.845 350.527 155.246 351.091 155.845L354.401 158.733Z" fill="#990000"/>
<path d="M55.71 220.36H18V253.4H55.71V220.36Z" fill="#006792"/>
<path d="M55.52 262.61H18V364.15H55.52V262.61Z" fill="#006792"/>
<path d="M126.48 221.51H433.15L401.21 253.4H126.48V221.51Z" fill="#006792"/>
<path d="M239.44 272.93H386.77L350.93 308.21H239.44V272.93Z" fill="#006792"/>
<path d="M335.54 327.73L298.95 364.14H218.62C242.28 349.3 243.4 327.54 243.4 327.54L335.54 327.73Z" fill="#006792"/>
<path d="M230.61 323.03C227.07 359.82 178.49 380.82 145.8 356.99C121.26 339.14 110.47 293.71 149.56 267.66C161.16 259.92 193.09 248.54 222.19 283.24L175.64 329.22C171.89 334.66 188.42 332.23 190.67 323.02H230.61V323.03ZM180.15 296.2C169.47 291.88 157.99 308.02 161.96 314.59L180.15 296.2Z" fill="#006792"/>
<path d="M72.8104 262.61V232.96L111.45 220V262.61H125.14V294.51H111.64L111.82 328.13C111.88 336 109.94 343.88 124.21 343.88V382.16C121.6 381.76 75.7904 374.85 72.6104 339.37L72.8004 294.51H58.9004V262.61H72.8104Z" fill="#006792"/>
</svg>
